<svg xmlns="http://www.w3.org/2000/svg" xmlns:xlink="http://www.w3.org/1999/xlink" id="Layer_1" x="0" y="0" version="1.1" viewBox="0 0 193 58" xml:space="preserve" style="enable-background:new 0 0 193 58"><style type="text/css">.st0{fill:#212121}.st1{fill:#f9f67d}.st2{fill:#894b28}.st3{opacity:.2}.st4{fill:#0dbc42}.st5{fill:#73f48f}.st6{fill:#3ad662}.st7{fill:#231f20}</style><g><g><g><path d="M100.3,13.7v-4H84.6V32h4.7v-8.9h9.9v-4h-9.9v-5.4H100.3z" class="st0"/><path d="M103.2,17.9v14h4.5V16.8L103.2,17.9z M107.5,10.3c-0.6-0.5-1.3-0.8-2.1-0.8c-0.4,0-0.8,0.1-1.1,0.2 c-0.4,0.1-0.7,0.3-0.9,0.6c-0.3,0.2-0.5,0.5-0.6,0.8c-0.2,0.3-0.2,0.7-0.2,1c0,0.4,0.1,0.7,0.2,1c0.1,0.3,0.4,0.6,0.6,0.8 c0.3,0.2,0.6,0.4,0.9,0.6c0.4,0.1,0.7,0.2,1.1,0.2c0.8,0,1.5-0.3,2.1-0.8c0.6-0.5,0.9-1.1,0.9-1.8 C108.4,11.4,108.1,10.8,107.5,10.3z" class="st0"/><path d="M111.9,10.9v21h4.5V9.8L111.9,10.9z" class="st0"/><path d="M132.9,17.9c-1.4-1.1-3.4-1.7-6-1.7c-3.1,0-5.6,1-7.4,3l3.3,2c1.1-1.2,2.4-1.8,4-1.8c1.1,0,2,0.3,2.7,0.8 c0.7,0.5,1.1,1.2,1.1,2v0.5c-0.5-0.2-1-0.3-1.8-0.5c-0.7-0.2-1.6-0.2-2.7-0.2c-1,0-1.9,0.1-2.7,0.4c-0.8,0.2-1.6,0.6-2.2,1 c-0.6,0.5-1.1,1-1.5,1.6c-0.3,0.6-0.5,1.3-0.5,2.1c0,0.8,0.2,1.5,0.5,2.1c0.3,0.6,0.8,1.2,1.3,1.6c0.6,0.5,1.3,0.8,2,1.1 c0.8,0.3,1.6,0.4,2.5,0.4c1.2,0,2.1-0.2,2.9-0.6c0.7-0.4,1.4-0.9,1.9-1.5h0.3V32h4.5v-9.1C135,20.7,134.3,19,132.9,17.9z M130.3,27.1c-0.2,0.4-0.5,0.8-0.8,1.1c-0.4,0.3-0.8,0.6-1.3,0.8c-0.5,0.2-1.1,0.3-1.7,0.3c-0.7,0-1.4-0.2-2-0.6 c-0.6-0.4-0.8-0.9-0.8-1.5c0-0.6,0.3-1.1,0.9-1.6c0.6-0.4,1.4-0.6,2.5-0.6c0.7,0,1.3,0.1,1.9,0.2c0.6,0.1,1.1,0.3,1.6,0.5 C130.6,26.2,130.5,26.7,130.3,27.1z" class="st0"/><path d="M153.1,18c-1-1.2-2.7-1.7-4.9-1.7c-1.1,0-2.2,0.2-3.1,0.7c-0.9,0.5-1.6,1.1-2.1,1.8h-0.3l0.3-2.8V9.8 l-4.5,1.2v21h4.5v-7.4c0-0.6,0.1-1.2,0.3-1.7c0.2-0.5,0.4-1,0.8-1.4c0.3-0.4,0.7-0.7,1.2-1c0.5-0.2,1-0.4,1.7-0.4 c1,0,1.8,0.3,2.3,0.8c0.6,0.5,0.8,1.3,0.8,2.4V32h4.5v-9.2C154.7,20.8,154.2,19.2,153.1,18z" class="st0"/><path d="M171.1,17.9c-1.4-1.1-3.4-1.7-6-1.7c-3.1,0-5.6,1-7.4,3l3.3,2c1.1-1.2,2.4-1.8,4-1.8c1.1,0,2,0.3,2.7,0.8 c0.7,0.5,1.1,1.2,1.1,2v0.5c-0.5-0.2-1-0.3-1.8-0.5c-0.7-0.2-1.6-0.2-2.7-0.2c-1,0-1.9,0.1-2.7,0.4c-0.8,0.2-1.6,0.6-2.2,1 c-0.6,0.5-1.1,1-1.5,1.6c-0.3,0.6-0.5,1.3-0.5,2.1c0,0.8,0.2,1.5,0.5,2.1c0.3,0.6,0.8,1.2,1.4,1.6c0.6,0.5,1.2,0.8,2,1.1 c0.8,0.3,1.6,0.4,2.5,0.4c1.2,0,2.1-0.2,2.9-0.6c0.7-0.4,1.4-0.9,1.9-1.5h0.3V32h4.5v-9.1C173.2,20.7,172.5,19,171.1,17.9z M168.4,27.1c-0.2,0.4-0.5,0.8-0.8,1.1c-0.4,0.3-0.8,0.6-1.3,0.8c-0.5,0.2-1.1,0.3-1.7,0.3c-0.7,0-1.4-0.2-2-0.6 c-0.6-0.4-0.8-0.9-0.8-1.5c0-0.6,0.3-1.1,0.9-1.6c0.6-0.4,1.4-0.6,2.5-0.6c0.7,0,1.3,0.1,1.8,0.2c0.6,0.1,1.1,0.3,1.6,0.5 C168.7,26.2,168.6,26.7,168.4,27.1z" class="st0"/></g><g><path d="M95.1,46c-0.4,0.5-1,0.9-1.5,1.2c-0.6,0.3-1.2,0.4-2,0.4c-0.6,0-1.2-0.1-1.7-0.3c-0.5-0.2-1-0.5-1.4-0.8 c-0.4-0.4-0.7-0.8-1-1.3c-0.2-0.5-0.4-1.1-0.4-1.7c0-0.6,0.1-1.2,0.4-1.7c0.2-0.5,0.6-0.9,1-1.3c0.4-0.4,0.9-0.6,1.4-0.8 c0.5-0.2,1.1-0.3,1.7-0.3c0.7,0,1.3,0.1,1.8,0.4c0.5,0.2,1,0.6,1.4,1l1.8-1.5c-0.6-0.6-1.4-1.1-2.2-1.4c-0.8-0.3-1.8-0.5-2.8-0.5 c-1,0-1.9,0.2-2.8,0.5c-0.8,0.3-1.6,0.8-2.2,1.3c-0.6,0.6-1.1,1.2-1.5,2c-0.4,0.8-0.5,1.6-0.5,2.5c0,0.9,0.2,1.7,0.5,2.5 c0.4,0.8,0.9,1.4,1.5,2c0.6,0.6,1.4,1,2.2,1.3c0.9,0.3,1.8,0.5,2.8,0.5c1.1,0,2.1-0.2,3-0.6c0.9-0.4,1.7-0.9,2.3-1.6L95.1,46z" class="st0"/><path d="M106.2,42c-0.6-0.6-1.4-0.9-2.6-0.9c-0.6,0-1.2,0.1-1.6,0.4c-0.5,0.2-0.9,0.6-1.1,1h-0.1l0.1-1.5v-3.3 l-2.4,0.6v11.3h2.4v-4c0-0.3,0-0.6,0.1-0.9c0.1-0.3,0.2-0.6,0.4-0.8c0.2-0.2,0.4-0.4,0.7-0.5c0.3-0.1,0.6-0.2,0.9-0.2 c0.5,0,0.9,0.1,1.2,0.4c0.3,0.3,0.5,0.7,0.5,1.3v4.7h2.4v-4.9C107,43.5,106.8,42.6,106.2,42z" class="st0"/><path d="M115.9,41.9c-0.7-0.6-1.8-0.9-3.2-0.9c-1.7,0-3,0.5-4,1.6l1.8,1.1c0.6-0.6,1.3-1,2.1-1c0.6,0,1,0.1,1.4,0.4 c0.4,0.3,0.6,0.6,0.6,1.1v0.3c-0.2-0.1-0.6-0.2-0.9-0.3c-0.4-0.1-0.9-0.1-1.5-0.1c-0.5,0-1,0.1-1.5,0.2c-0.4,0.1-0.8,0.3-1.2,0.6 c-0.3,0.2-0.6,0.5-0.8,0.9c-0.2,0.3-0.3,0.7-0.3,1.1c0,0.4,0.1,0.8,0.3,1.1c0.2,0.3,0.4,0.6,0.7,0.9c0.3,0.2,0.7,0.4,1.1,0.6 c0.4,0.1,0.9,0.2,1.3,0.2c0.6,0,1.2-0.1,1.6-0.3c0.4-0.2,0.7-0.5,1-0.8h0.1v0.9h2.4v-4.9C117,43.4,116.6,42.5,115.9,41.9z M114.4,46.9c-0.1,0.2-0.3,0.4-0.4,0.6c-0.2,0.2-0.4,0.3-0.7,0.4c-0.3,0.1-0.6,0.2-0.9,0.2c-0.4,0-0.7-0.1-1.1-0.3 c-0.3-0.2-0.5-0.5-0.5-0.8c0-0.3,0.2-0.6,0.5-0.8c0.3-0.2,0.8-0.3,1.3-0.3c0.4,0,0.7,0,1,0.1c0.3,0.1,0.6,0.2,0.9,0.3 C114.6,46.4,114.5,46.6,114.4,46.9z" class="st0"/><path d="M118.9,38.2v11.3h2.4V37.5L118.9,38.2z" class="st0"/><path d="M123.4,38.2v11.3h2.4V37.5L123.4,38.2z" class="st0"/><path d="M136.3,43.6c-0.2-0.5-0.5-1-0.9-1.4c-0.4-0.4-0.9-0.7-1.4-0.9c-0.6-0.2-1.2-0.3-2-0.3 c-0.7,0-1.3,0.1-1.9,0.4c-0.6,0.2-1.1,0.5-1.5,0.9c-0.4,0.4-0.7,0.9-1,1.4c-0.2,0.5-0.4,1.1-0.4,1.7c0,0.6,0.1,1.2,0.4,1.7 c0.2,0.5,0.6,1,1,1.4c0.4,0.4,0.9,0.7,1.5,0.9c0.6,0.2,1.2,0.3,1.9,0.3c1,0,1.9-0.2,2.6-0.6c0.7-0.4,1.3-0.9,1.7-1.6l-2-0.9 c-0.2,0.3-0.5,0.6-0.9,0.9c-0.4,0.2-0.8,0.3-1.4,0.3c-0.3,0-0.6,0-0.8-0.1c-0.3-0.1-0.5-0.2-0.8-0.4c-0.2-0.2-0.4-0.4-0.6-0.6 c-0.2-0.2-0.3-0.5-0.3-0.9h6.9c0-0.1,0-0.1,0-0.2c0-0.1,0-0.1,0-0.2v-0.2C136.6,44.7,136.5,44.2,136.3,43.6z M129.9,44.4 c0.2-0.5,0.4-0.9,0.8-1.1c0.4-0.3,0.9-0.4,1.4-0.4c0.4,0,0.7,0,1,0.1c0.3,0.1,0.5,0.2,0.7,0.4c0.2,0.2,0.3,0.3,0.4,0.5 c0.1,0.2,0.1,0.3,0.2,0.5H129.9z" class="st0"/><path d="M146.6,43.1c-0.1-0.4-0.4-0.8-0.6-1.1c-0.3-0.3-0.6-0.5-1.1-0.7c-0.4-0.2-0.9-0.2-1.5-0.2 c-0.6,0-1.2,0.1-1.7,0.4c-0.5,0.2-0.9,0.6-1.2,1h-0.1v-1.1h0l-2.3,0.6v7.6h2.4v-4c0-0.3,0.1-0.6,0.1-0.9c0.1-0.3,0.2-0.6,0.4-0.8 c0.2-0.2,0.4-0.4,0.7-0.5c0.3-0.1,0.6-0.2,0.9-0.2c0.6,0,1,0.1,1.3,0.4s0.4,0.7,0.4,1.3v4.7h2.4v-4.9 C146.8,44,146.8,43.5,146.6,43.1z" class="st0"/><path d="M155.5,41.9v0.3h-0.1c-0.3-0.4-0.7-0.6-1.1-0.8c-0.5-0.2-1-0.3-1.6-0.3c-0.5,0-1.1,0.1-1.6,0.3 c-0.5,0.2-1,0.5-1.4,0.8c-0.4,0.4-0.7,0.8-1,1.3c-0.2,0.5-0.4,1.1-0.4,1.7s0.1,1.2,0.4,1.7s0.6,1,1,1.3c0.4,0.4,0.9,0.7,1.4,0.8 c0.5,0.2,1,0.3,1.6,0.3c0.6,0,1.2-0.1,1.6-0.3c0.5-0.2,0.8-0.5,1.1-0.8h0.1v0.6c0,0.8-0.2,1.4-0.7,1.8c-0.4,0.5-1.1,0.7-1.8,0.7 c-0.5,0-0.9-0.1-1.3-0.4c-0.4-0.2-0.7-0.6-0.9-1l-2.3,0.8c0.1,0.3,0.3,0.6,0.5,0.9s0.6,0.6,0.9,0.8c0.4,0.2,0.8,0.4,1.3,0.6 c0.5,0.1,1.1,0.2,1.7,0.2c0.7,0,1.4-0.1,2-0.3c0.6-0.2,1.1-0.5,1.5-0.9c0.4-0.4,0.7-0.9,1-1.4c0.2-0.6,0.4-1.2,0.4-1.9v-7.6 L155.5,41.9z M155.2,46.2c-0.1,0.3-0.3,0.5-0.5,0.7c-0.2,0.2-0.5,0.3-0.8,0.4c-0.3,0.1-0.6,0.1-0.9,0.1c-0.3,0-0.6-0.1-0.9-0.1 c-0.3-0.1-0.5-0.2-0.8-0.4c-0.2-0.2-0.4-0.4-0.5-0.7c-0.1-0.3-0.2-0.6-0.2-1s0.1-0.7,0.2-1c0.1-0.3,0.3-0.5,0.5-0.7 c0.2-0.2,0.5-0.3,0.8-0.4c0.3-0.1,0.6-0.1,0.9-0.1c0.3,0,0.6,0.1,0.9,0.1c0.3,0.1,0.6,0.2,0.8,0.4c0.2,0.2,0.4,0.4,0.5,0.7 c0.1,0.3,0.2,0.6,0.2,1S155.4,45.9,155.2,46.2z" class="st0"/><path d="M168.2,43.6c-0.2-0.5-0.5-1-0.9-1.4c-0.4-0.4-0.9-0.7-1.4-0.9c-0.6-0.2-1.2-0.3-2-0.3 c-0.7,0-1.3,0.1-1.9,0.4c-0.6,0.2-1.1,0.5-1.5,0.9c-0.4,0.4-0.8,0.9-1,1.4c-0.2,0.5-0.4,1.1-0.4,1.7c0,0.6,0.1,1.2,0.4,1.7 c0.2,0.5,0.6,1,1,1.4c0.4,0.4,0.9,0.7,1.5,0.9c0.6,0.2,1.2,0.3,1.9,0.3c1,0,1.9-0.2,2.6-0.6c0.7-0.4,1.3-0.9,1.7-1.6l-2-0.9 c-0.2,0.3-0.5,0.6-0.9,0.9c-0.4,0.2-0.8,0.3-1.4,0.3c-0.3,0-0.6,0-0.8-0.1c-0.3-0.1-0.5-0.2-0.8-0.4c-0.2-0.2-0.4-0.4-0.6-0.6 c-0.2-0.2-0.3-0.5-0.3-0.9h6.9c0-0.1,0-0.1,0-0.2c0-0.1,0-0.1,0-0.2v-0.2C168.5,44.7,168.4,44.2,168.2,43.6z M161.8,44.4 c0.2-0.5,0.4-0.9,0.8-1.1c0.4-0.3,0.9-0.4,1.4-0.4c0.4,0,0.7,0,1,0.1c0.3,0.1,0.5,0.2,0.7,0.4c0.2,0.2,0.3,0.3,0.4,0.5 c0.1,0.2,0.1,0.3,0.2,0.5H161.8z" class="st0"/><path d="M172.7,47.1c-0.3-0.3-0.7-0.4-1.1-0.4c-0.4,0-0.8,0.1-1.1,0.4c-0.3,0.3-0.5,0.6-0.5,1c0,0.4,0.2,0.7,0.5,1 c0.3,0.3,0.7,0.4,1.1,0.4c0.4,0,0.8-0.1,1.1-0.4c0.3-0.3,0.5-0.6,0.5-1C173.2,47.7,173,47.4,172.7,47.1z" class="st0"/></g></g><g><path d="M73.5,29.4c0,9.4-5.7,17.7-14.3,22c-0.7,0.4-1.4,0.7-2.1,1c-0.1,0-0.1,0.1-0.2,0.1c-0.2,0.1-0.3,0.1-0.5,0.2 c-0.1,0.1-0.3,0.1-0.4,0.1c-0.1,0-0.3,0.1-0.4,0.1c-0.2,0.1-0.4,0.2-0.7,0.2c-2.2,0.7-4.5,1.2-6.9,1.4c-0.5,0-1,0.1-1.4,0.1 c0,0,0,0,0,0h0c-0.5,0-0.9,0-1.4,0c-1,0-1.9,0-2.9-0.1c-1.8-0.2-3.6-0.5-5.3-0.9c-0.5-0.1-1.1-0.3-1.6-0.5 C35.2,53.1,35,53,34.8,53c-0.1,0-0.3-0.1-0.4-0.1c-0.1,0-0.3-0.1-0.4-0.1c-0.2-0.1-0.3-0.1-0.5-0.2c-0.1,0-0.1-0.1-0.2-0.1 c-9.7-4-16.4-12.8-16.4-23c0-6.4,2.6-12.2,6.9-16.6c0.2-0.2,0.5-0.5,0.7-0.7c0.2-0.2,0.5-0.4,0.7-0.6c0.3-0.3,0.7-0.6,1-0.9 c0.3-0.2,0.5-0.4,0.8-0.6c0.1-0.1,0.2-0.2,0.4-0.3c0.2-0.1,0.3-0.2,0.5-0.4c0,0,0.1-0.1,0.1-0.1c0.2-0.1,0.3-0.2,0.5-0.4h0 c0.1-0.1,0.2-0.1,0.4-0.2c0.1-0.1,0.2-0.1,0.3-0.2c0.1-0.1,0.2-0.1,0.3-0.2c0,0,0,0,0,0c0.2-0.1,0.5-0.3,0.7-0.4 C34.7,5.4,39.8,4,45.2,4C50.7,4,55.7,5.4,60,7.8c0.2,0.1,0.5,0.3,0.7,0.4c0.1,0.1,0.2,0.1,0.4,0.2c0.1,0.1,0.2,0.1,0.3,0.2 c0.1,0.1,0.2,0.2,0.4,0.2c0.1,0.1,0.3,0.2,0.4,0.3c0.1,0.1,0.2,0.1,0.3,0.2c0,0,0,0,0,0c0.1,0.1,0.2,0.2,0.4,0.3 c0.1,0.1,0.2,0.2,0.4,0.3h0c0.7,0.5,1.4,1.1,2,1.6c0.2,0.2,0.5,0.4,0.7,0.6c0.2,0.2,0.5,0.5,0.7,0.7c0.8,0.8,1.5,1.7,2.2,2.6 C71.8,19.3,73.5,24.2,73.5,29.4z" class="st1"/><g><g><g><path d="M59.2,51.4c-0.7,0.4-1.4,0.7-2.1,1c-0.1,0-0.1,0.1-0.2,0.1c-0.2,0.1-0.3,0.1-0.5,0.2 c-0.1,0.1-0.3,0.1-0.4,0.1c-0.1,0-0.3,0.1-0.4,0.1c-0.2,0.1-0.4,0.2-0.7,0.2c-2.2,0.7-4.5,1.2-6.9,1.4c-0.5,0-1,0.1-1.4,0.1 c0,0,0,0,0,0h0c-0.5,0-0.9,0-1.4,0c-1,0-1.9,0-2.9-0.1c-1.8-0.2-3.6-0.5-5.3-0.9c-0.1-0.7-0.2-1.4-0.2-1.5 c0-1.5,0.9-2.8,2.2-3.5c0.7-0.4,1.5-0.6,2.4-0.6h13.3c1.3,0,2.4,0.5,3.2,1.2C58.6,49.8,59.1,50.6,59.2,51.4z" class="st2"/><path d="M54.5,48c-0.8-0.4-1.7-0.6-2.6-0.6H38.6c-2.9,0-5.3,2.1-5.3,4.7c0,0.1,0,0.2,0,0.2c0.1,0,0.1,0.1,0.2,0.1 c0.2,0.1,0.3,0.1,0.5,0.2c0.1,0,0.2,0.1,0.4,0.1c0.1,0,0.3,0.1,0.4,0.1c-0.1-0.3-0.1-0.5-0.1-0.8c0-1.9,1.7-3.5,3.9-3.5h13.3 c2.2,0,3.9,1.6,3.9,3.5c0,0.3,0,0.6-0.1,0.8c0.1,0,0.3-0.1,0.4-0.1c0.1,0,0.3-0.1,0.4-0.1c0.2-0.1,0.3-0.1,0.5-0.2 c0.1,0,0.1-0.1,0.2-0.1c0-0.1,0-0.2,0-0.2C57.1,50.4,56.1,48.8,54.5,48z" class="st0"/></g><g class="st3"><path d="M65.1,27.9C65.1,27.9,65.1,27.9,65.1,27.9C65.1,27.9,65.1,27.9,65.1,27.9L65.1,27.9z" class="st4"/></g><g><path d="M68.8,7.6v18.5c0,0.4,0,0.8,0,1.1c-0.6,9.3-8.9,16.8-19.3,17.4c0,0,0,0,0,0h-0.1c-0.4,0-0.8,0-1.2,0 c-0.4,0-0.8,0-1.2,0h-0.1c0,0,0,0,0,0C36,44,27.4,35.9,27.4,26.1V7.6c0,0,13,3.4,20.9,10.9C56.3,10.6,68.8,7.6,68.8,7.6z" class="st5"/><path d="M49.9,43c6.5-7.3,6-17.9-1.6-24.6c0,0-13.6,12.2-1.4,24.9C47.4,43.7,49.4,43.6,49.9,43z" class="st6"/><path d="M68.7,27.2c-0.6,9.3-8.9,16.8-19.3,17.4c0,0,0,0,0,0h-0.1c-0.4,0-0.8,0-1.2,0c0-17.4,19.4-17.4,19.4-17.4 S67.9,27.2,68.7,27.2z" class="st4"/><path d="M27.4,27.2c0.6,9.3,8.9,16.8,19.3,17.4c0,0,0,0,0,0h0.1c0.4,0,0.8,0,1.2,0c0-17.4-19.4-17.4-19.4-17.4 S28.2,27.2,27.4,27.2z" class="st4"/></g><path d="M66.3,7.1C66.1,7,65.9,6.9,65.7,7c-0.2,0-2,0.5-4.6,1.4c-0.3,0.1-0.7,0.3-1.1,0.4c-4,1.5-9.3,4.1-13.7,7.9 c-0.3,0.3-0.6,0.5-0.9,0.8c-2.1-1.9-4.6-3.6-7-4.9c-2.9-1.6-5.7-2.9-8.1-3.8c-0.4-0.1-0.7-0.3-1.1-0.4C28.6,8.2,28,8,27.4,7.8 C25.9,7.3,24.9,7,24.7,7c-0.2-0.1-0.4,0-0.6,0.1c-0.2,0.1-0.3,0.3-0.3,0.5v18.5c0,0.3,0,0.7,0,1c0.5,9.5,8.8,17.2,19.4,18.1 c0.2,0,0.3,0,0.5,0c0,0,0.1,0,0.1,0c0,0,0,0,0,0h0l0,0c0.4,0,0.8,0,1.3,0h0c0,0,0,0,0,0h0c0.4,0,0.9,0,1.2,0h0.1 c0,0,0.1,0,0.1,0c1.8-0.1,3.5-0.4,5.1-0.9h0c8.2-2.4,14.2-9,14.7-17v-0.1c0-0.4,0-0.8,0-1.1V7.6C66.6,7.4,66.5,7.2,66.3,7.1z M44.6,20.2c0.1-0.1,0.1-0.2,0.2-0.2c0.1-0.1,0.2-0.2,0.3-0.3c0,0,0.1-0.1,0.1-0.1c0.1-0.1,0.1-0.1,0.2-0.2 c0.3,0.2,0.5,0.5,0.7,0.8c0.1,0.1,0.2,0.2,0.3,0.3c0.3,0.3,0.5,0.6,0.8,0.9c0.1,0.1,0.2,0.2,0.2,0.3c0.1,0.1,0.2,0.3,0.3,0.4 c0.1,0.2,0.2,0.3,0.3,0.5c0.1,0.2,0.2,0.3,0.3,0.5c0.1,0.2,0.2,0.4,0.3,0.6c0.1,0.2,0.2,0.3,0.2,0.5c0.1,0.2,0.2,0.4,0.3,0.6 c0.1,0.1,0.1,0.3,0.2,0.4c0,0.1,0.1,0.2,0.1,0.3c0.1,0.1,0.1,0.3,0.2,0.4c0,0.1,0.1,0.2,0.1,0.3c0.1,0.2,0.2,0.5,0.2,0.7 c0,0.1,0.1,0.3,0.1,0.4c0,0.1,0.1,0.2,0.1,0.3c0,0,0,0,0,0.1c0.1,0.2,0.1,0.4,0.1,0.6c0.1,0.2,0.1,0.4,0.1,0.7c0,0,0,0.1,0,0.1 c0,0.2,0.1,0.4,0.1,0.6c0,0,0,0.1,0,0.1c0,0.2,0.1,0.5,0.1,0.7c0,0.2,0,0.5,0,0.7c-0.2,0.2-0.4,0.3-0.7,0.5 c-1.5,1.3-2.9,2.9-3.9,4.9v0c-0.4,0.9-0.8,1.8-1.1,2.8c0-0.1-0.1-0.2-0.1-0.4c0,0,0,0,0,0c-0.7-2.3-1.8-4.2-3.2-5.8l0,0 c-0.5-0.6-1.1-1.1-1.6-1.6v0c-0.1,0-0.1-0.1-0.2-0.1c-0.1-0.1-0.3-0.2-0.4-0.3c0-0.2,0-0.5,0.1-0.8c0-0.1,0-0.2,0-0.3 c0-0.2,0-0.3,0.1-0.5c0-0.1,0-0.2,0.1-0.4c0-0.2,0.1-0.4,0.1-0.5c0.1-0.5,0.3-1,0.4-1.5c0-0.1,0.1-0.3,0.1-0.4 c0.1-0.2,0.1-0.3,0.2-0.5c0.1-0.3,0.2-0.5,0.3-0.8c0.1-0.2,0.1-0.3,0.2-0.5c0.6-1.2,1.2-2.2,1.9-3.1c0,0,0.1-0.1,0.1-0.1 s0.1-0.1,0.1-0.1c0,0,0-0.1,0.1-0.1l0.3-0.3c0,0,0.1-0.1,0.1-0.1c0.2-0.3,0.4-0.5,0.6-0.7L44.6,20.2 C44.6,20.2,44.6,20.2,44.6,20.2z M25.2,26.1V8.4c0.1,0,0.1,0,0.2,0.1c0.1,0,0.1,0,0.2,0.1c0,0,0,0,0.1,0c0.1,0,0.3,0.1,0.4,0.1 c0,0,0.1,0,0.1,0C26.6,8.8,27,9,27.4,9.1c0,0,0,0,0.1,0c0.1,0.1,0.3,0.1,0.5,0.2c0.2,0.1,0.3,0.1,0.5,0.2 c0.2,0.1,0.4,0.1,0.5,0.2c1.1,0.4,2.3,0.9,3.6,1.5c0.4,0.2,0.8,0.3,1.1,0.5c0.2,0.1,0.3,0.2,0.5,0.2c0.5,0.2,1,0.5,1.6,0.8 c0.1,0,0.2,0.1,0.3,0.1c0.6,0.3,1.2,0.6,1.8,1c2.3,1.3,4.6,2.9,6.6,4.6c-0.1,0.1-0.2,0.2-0.3,0.3c0,0,0,0-0.1,0.1 c-0.1,0.1-0.3,0.3-0.4,0.4c-1.6,1.8-4.3,5.5-5.2,10c0,0.1,0,0.1,0,0.2c-0.1,0.3-0.1,0.5-0.1,0.8c-0.1,0-0.1-0.1-0.2-0.1 c-0.7-0.5-1.5-0.9-2.3-1.2c-1.4-0.6-2.7-1.1-4-1.4c0,0,0,0,0,0c-1.8-0.5-3.4-0.7-4.5-0.8c-0.4,0-0.8-0.1-1-0.1 c-0.1,0-0.1,0-0.2,0c-0.2,0-0.4,0-0.4,0l-0.6,0C25.2,26.4,25.2,26.3,25.2,26.1z M41.7,43.7c-0.1,0-0.1,0-0.2,0 c-0.2,0-0.3-0.1-0.5-0.1c-0.1,0-0.3-0.1-0.4-0.1c0,0-0.1,0-0.1,0c-0.1,0-0.2,0-0.3-0.1c-0.2,0-0.4-0.1-0.6-0.1 c-0.1,0-0.3-0.1-0.4-0.1c-0.2-0.1-0.4-0.1-0.6-0.2c-0.2,0-0.3-0.1-0.5-0.2c0,0,0,0,0,0c-0.1-0.1-0.3-0.1-0.4-0.2 c-6.8-2.4-11.7-8.1-12.4-14.8l0.5,0c0,0,0.3,0,0.8,0c0.2,0,0.5,0,0.9,0.1c0,0,0,0,0,0c1.8,0.2,4.7,0.7,7.7,2 c1.1,0.5,2.2,1.1,3.1,1.7c0.2,0.2,0.5,0.3,0.7,0.5c0.2,0.2,0.5,0.4,0.7,0.6c0.1,0.1,0.2,0.2,0.4,0.3c1,1,1.9,2,2.5,3.2 c0,0,0,0,0,0c0.4,0.8,0.8,1.6,1.1,2.5c0,0,0,0,0,0c0.4,1.2,0.6,2.4,0.8,3.8c0,0.1,0,0.1,0,0.2c0,0.2,0,0.4,0,0.5 c0,0.2,0,0.3,0,0.5h-0.1c-0.1,0-0.2,0-0.4,0c0,0,0,0,0,0h0c-0.1,0-0.1,0-0.2,0c-0.2,0-0.4,0-0.6-0.1c-0.2,0-0.5,0-0.7-0.1 C42.2,43.8,42,43.8,41.7,43.7L41.7,43.7C41.8,43.7,41.8,43.7,41.7,43.7L41.7,43.7z M64.6,27.9l0.5,0v0c0,0.1,0,0.2,0,0.2 c0,0.1,0,0.1,0,0.2c0,0.1,0,0.3-0.1,0.4c0,0.1,0,0.3-0.1,0.4c0,0.2-0.1,0.3-0.1,0.5c0,0.1,0,0.1,0,0.2c-0.1,0.2-0.1,0.5-0.2,0.7 c-0.1,0.2-0.1,0.5-0.2,0.7c0,0.1-0.1,0.2-0.1,0.2c-0.1,0.2-0.1,0.4-0.2,0.6c-0.1,0.2-0.2,0.4-0.3,0.6c-0.1,0.2-0.2,0.3-0.2,0.5 c0,0.1-0.1,0.1-0.1,0.2c-0.1,0.2-0.2,0.4-0.3,0.6c0,0.1-0.1,0.1-0.1,0.1c-0.1,0.2-0.2,0.3-0.3,0.5c0,0.1-0.1,0.2-0.1,0.2 c-0.1,0.2-0.2,0.4-0.4,0.6c0,0,0,0,0,0c-0.1,0.2-0.2,0.3-0.3,0.5c-0.1,0.1-0.2,0.2-0.3,0.4c0,0.1-0.1,0.1-0.1,0.1 c-0.1,0.2-0.2,0.3-0.4,0.5c-0.1,0.1-0.1,0.2-0.2,0.3c-0.1,0.1-0.2,0.2-0.3,0.4c-0.1,0.2-0.3,0.3-0.4,0.5 c-0.1,0.1-0.3,0.3-0.4,0.4c-0.1,0.1-0.1,0.1-0.2,0.2c-0.1,0.1-0.2,0.2-0.4,0.3c-0.1,0.1-0.2,0.2-0.3,0.2 c-0.1,0.1-0.2,0.2-0.3,0.3c-0.1,0.1-0.2,0.1-0.2,0.2c-0.2,0.1-0.3,0.2-0.5,0.4c-0.1,0.1-0.1,0.1-0.2,0.2 c-0.1,0.1-0.2,0.2-0.4,0.2c-0.1,0.1-0.3,0.2-0.5,0.3c-0.1,0-0.1,0.1-0.2,0.1c-0.2,0.1-0.3,0.2-0.5,0.3c-0.1,0.1-0.2,0.1-0.3,0.2 c-0.2,0.1-0.3,0.2-0.5,0.3c-0.1,0-0.1,0.1-0.2,0.1c-0.1,0.1-0.3,0.1-0.4,0.2c-0.1,0.1-0.3,0.1-0.4,0.2c-0.2,0.1-0.4,0.2-0.6,0.3 c-0.3,0.1-0.5,0.2-0.8,0.3c0,0,0,0,0,0c-0.3,0.1-0.5,0.2-0.8,0.3c0,0,0,0,0,0c-0.3,0.1-0.5,0.2-0.8,0.2c0,0-0.1,0-0.1,0 c-0.2,0.1-0.4,0.1-0.6,0.2c-0.1,0-0.2,0-0.3,0.1c-0.3,0.1-0.5,0.1-0.8,0.2c-0.3,0.1-0.6,0.1-0.9,0.2c-0.1,0-0.3,0-0.4,0.1 c0,0,0,0-0.1,0c-0.1,0-0.2,0-0.3,0c-0.1,0-0.1,0-0.2,0c-0.2,0-0.4,0-0.7,0.1c-0.1,0-0.1,0-0.2,0c0,0,0,0,0,0h0 c-0.1,0-0.1,0-0.2,0c0,0,0,0,0,0h0c-0.1,0-0.2,0-0.3,0c-0.1,0-0.1,0-0.2,0l0-0.5c0-0.2,0-0.4,0-0.6c0,0,0,0,0-0.1 c0-0.2,0-0.3,0.1-0.5v0c0-0.1,0-0.2,0-0.2c0-0.2,0.1-0.5,0.1-0.7c0.1-0.6,0.2-1.2,0.4-1.7c0-0.1,0.1-0.2,0.1-0.4 c0.1-0.2,0.1-0.4,0.2-0.5c0.1-0.2,0.1-0.3,0.2-0.5v0c0.5-1.3,1.1-2.4,1.9-3.5c0.1-0.2,0.2-0.3,0.4-0.5c0.2-0.2,0.4-0.4,0.6-0.7 c0.1-0.1,0.2-0.2,0.3-0.3c0.2-0.2,0.4-0.4,0.6-0.6c0.2-0.2,0.5-0.4,0.7-0.6c0.2-0.2,0.5-0.4,0.7-0.5c0.1-0.1,0.2-0.2,0.3-0.2 c0.1-0.1,0.2-0.1,0.3-0.2c0.2-0.1,0.4-0.2,0.6-0.4c0.1-0.1,0.2-0.1,0.3-0.2c0.1-0.1,0.3-0.1,0.4-0.2c0,0,0.1,0,0.1-0.1 c0.3-0.1,0.6-0.3,0.8-0.4c2.1-0.9,4.2-1.5,5.9-1.8c0,0,0,0,0,0C63.1,27.9,64.6,27.9,64.6,27.9z M65.2,26.1c0,0.2,0,0.4,0,0.5 l-0.6,0c-0.1,0-5.3,0.1-10.4,2.5c-0.7,0.3-1.4,0.7-2,1.1c-0.3-3.9-1.9-7.7-4.8-10.8c-0.1-0.1-0.1-0.2-0.2-0.3 c-0.2-0.2-0.5-0.5-0.7-0.7c0.3-0.3,0.6-0.5,0.9-0.8c0,0,0,0,0,0c0.1-0.1,0.3-0.2,0.4-0.4c0.2-0.1,0.4-0.3,0.5-0.4 c0.3-0.2,0.6-0.4,0.9-0.7c1.4-1,2.8-1.9,4.2-2.7c0.3-0.1,0.5-0.3,0.8-0.4c0.3-0.2,0.7-0.4,1-0.5c0,0,0,0,0,0 c0.3-0.2,0.6-0.3,1-0.5c0.3-0.2,0.7-0.3,1-0.5c0.2-0.1,0.3-0.2,0.5-0.2c1-0.4,1.9-0.8,2.7-1.2c0.3-0.1,0.6-0.2,0.8-0.3 c0.4-0.2,0.9-0.3,1.3-0.5c0,0,0,0,0,0c0.1,0,0.1,0,0.1-0.1C62.9,9.1,63.1,9,63.4,9c0.7-0.2,1.4-0.4,1.8-0.6V26.1z" class="st0"/><path d="M45.4,18.4C45.4,18.4,45.4,18.4,45.4,18.4C45.4,18.4,45.4,18.4,45.4,18.4C45.4,18.4,45.4,18.4,45.4,18.4 C45.4,18.4,45.4,18.4,45.4,18.4z" class="st5"/></g></g></g></g><g><g><path d="M45.8,44.2c-0.1,0-0.1,0-0.2-0.1c-0.1-0.1,0-0.2,0.1-0.3c0.1,0,5.2-3.2,7.2-6.6c0.1-0.1,0.2-0.1,0.3-0.1 c0.1,0.1,0.1,0.2,0.1,0.3c-2.1,3.5-7.2,6.6-7.4,6.7C45.9,44.2,45.9,44.2,45.8,44.2z" class="st7"/><path d="M53.3,37.5c-0.4,0-0.7-0.3-0.7-0.6s0.3-0.6,0.7-0.6c0.4,0,0.7,0.3,0.7,0.6S53.7,37.5,53.3,37.5z M53.3,36.7 c-0.1,0-0.3,0.1-0.3,0.2s0.1,0.2,0.3,0.2s0.3-0.1,0.3-0.2S53.5,36.7,53.3,36.7z" class="st7"/><path d="M48.9,39.5c-0.4,0-0.7-0.3-0.7-0.6s0.3-0.6,0.7-0.6c0.4,0,0.7,0.3,0.7,0.6S49.3,39.5,48.9,39.5z M48.9,38.6 c-0.1,0-0.3,0.1-0.3,0.2s0.1,0.2,0.3,0.2c0.1,0,0.3-0.1,0.3-0.2S49.1,38.6,48.9,38.6z" class="st7"/><path d="M53.2,40.8c-0.4,0-0.7-0.3-0.7-0.6s0.3-0.6,0.7-0.6c0.4,0,0.7,0.3,0.7,0.6S53.6,40.8,53.2,40.8z M53.2,40 c-0.1,0-0.3,0.1-0.3,0.2s0.1,0.2,0.3,0.2c0.1,0,0.3-0.1,0.3-0.2S53.4,40,53.2,40z" class="st7"/><path d="M48.9,42C48.8,42,48.8,42,48.9,42c-0.2-0.1-0.2-0.2-0.2-0.3c0,0,0.6-1.4,0.2-2.4c0-0.1,0-0.2,0.1-0.2 c0.1,0,0.2,0,0.3,0.1c0.5,1.1-0.2,2.6-0.2,2.7C49,42,48.9,42,48.9,42z" class="st7"/><path d="M50.3,40.8c-0.1,0-0.1,0-0.2-0.1c-0.1-0.1-0.1-0.2,0-0.3c0,0,1.1-0.8,2.7-0.7c0.1,0,0.2,0.1,0.2,0.2 c0,0.1-0.1,0.2-0.2,0.2c-1.4-0.1-2.4,0.6-2.4,0.6C50.4,40.8,50.3,40.8,50.3,40.8z" class="st7"/></g><g><path d="M45.2,39.6C45.2,39.6,45.2,39.6,45.2,39.6c-0.2,0-0.2-0.1-0.2-0.2c0-0.1,1.2-6.2,0.4-10 c0-0.1,0.1-0.2,0.2-0.2c0.1,0,0.2,0,0.3,0.2c0.9,3.9-0.3,10.1-0.4,10.1C45.4,39.5,45.3,39.6,45.2,39.6z" class="st7"/><path d="M45.4,29.5C45.4,29.5,45.4,29.5,45.4,29.5c-0.2,0-0.4-0.1-0.5-0.2c-0.1-0.1-0.2-0.3-0.2-0.4 c0-0.2,0.1-0.3,0.2-0.4c0.1-0.1,0.3-0.2,0.5-0.1c0.2,0,0.3,0.1,0.5,0.2c0.1,0.1,0.2,0.3,0.2,0.4c0,0.2-0.1,0.3-0.2,0.4 C45.7,29.5,45.6,29.5,45.4,29.5z M45.4,28.7c-0.1,0-0.1,0-0.2,0.1c-0.1,0-0.1,0.1-0.1,0.2s0,0.1,0.1,0.2c0,0,0.1,0.1,0.2,0.1 c0.1,0,0.1,0,0.2-0.1c0.1,0,0.1-0.1,0.1-0.2c0-0.1,0-0.1-0.1-0.2C45.6,28.7,45.5,28.7,45.4,28.7C45.4,28.7,45.4,28.7,45.4,28.7z" class="st7"/><path d="M43.4,33.5C43.4,33.5,43.4,33.5,43.4,33.5c-0.2,0-0.4-0.1-0.5-0.2c-0.1-0.1-0.2-0.3-0.2-0.4 c0-0.2,0.1-0.3,0.2-0.4c0.1-0.1,0.3-0.2,0.5-0.1c0.2,0,0.3,0.1,0.5,0.2c0.1,0.1,0.2,0.3,0.2,0.4c0,0.2-0.1,0.3-0.2,0.4 C43.7,33.5,43.6,33.5,43.4,33.5z M43.4,32.7c-0.1,0-0.1,0-0.2,0.1c-0.1,0-0.1,0.1-0.1,0.2c0,0.1,0,0.1,0.1,0.2 c0,0,0.1,0.1,0.2,0.1c0.1,0,0.1,0,0.2-0.1c0.1,0,0.1-0.1,0.1-0.2c0-0.1,0-0.1-0.1-0.2C43.6,32.7,43.5,32.7,43.4,32.7z" class="st7"/><path d="M47.7,32.1C47.7,32.1,47.6,32.1,47.7,32.1c-0.2,0-0.4-0.1-0.5-0.2C47,31.7,47,31.6,47,31.4 c0-0.2,0.1-0.3,0.2-0.4c0.1-0.1,0.3-0.2,0.5-0.1c0.2,0,0.3,0.1,0.5,0.2c0.2,0.3,0.2,0.6-0.1,0.9C48,32,47.8,32.1,47.7,32.1z M47.7,31.2c-0.1,0-0.1,0-0.2,0.1c-0.1,0-0.1,0.1-0.1,0.2c0,0.1,0,0.1,0.1,0.2c0,0,0.1,0.1,0.2,0.1c0.1,0,0.1,0,0.2-0.1 c0.1-0.1,0.1-0.2,0-0.3C47.8,31.3,47.8,31.2,47.7,31.2C47.7,31.2,47.7,31.2,47.7,31.2z" class="st7"/><path d="M45.7,35.6c-0.1,0-0.2,0-0.2-0.1c0,0-0.8-1.7-1.8-2.2c-0.1-0.1-0.1-0.2-0.1-0.3c0.1-0.1,0.2-0.1,0.3-0.1 c1.2,0.6,2,2.3,2,2.4C46,35.5,45.9,35.6,45.7,35.6C45.8,35.6,45.8,35.6,45.7,35.6z" class="st7"/><path d="M45.8,34.3C45.8,34.3,45.8,34.3,45.8,34.3c-0.1,0-0.2-0.1-0.2-0.2c0-0.1,0.2-1.9,1.5-2.7 c0.1-0.1,0.2,0,0.3,0.1c0.1,0.1,0,0.2-0.1,0.3c-1.1,0.7-1.3,2.4-1.3,2.4C46,34.3,46,34.3,45.8,34.3z" class="st7"/></g><g><path d="M44.4,44.2c0,0-0.1,0-0.1,0c-0.2-0.1-5.3-3.2-7.4-6.7c-0.1-0.1,0-0.2,0.1-0.3c0.1-0.1,0.2,0,0.3,0.1 c2.1,3.4,7.2,6.6,7.2,6.6c0.1,0.1,0.1,0.2,0.1,0.3C44.5,44.1,44.5,44.2,44.4,44.2z" class="st7"/><path d="M36.9,37.5c-0.4,0-0.7-0.3-0.7-0.6s0.3-0.6,0.7-0.6c0.4,0,0.7,0.3,0.7,0.6S37.3,37.5,36.9,37.5z M36.9,36.7 c-0.1,0-0.3,0.1-0.3,0.2s0.1,0.2,0.3,0.2c0.1,0,0.3-0.1,0.3-0.2S37,36.7,36.9,36.7z" class="st7"/><path d="M41.3,39.5c-0.4,0-0.7-0.3-0.7-0.6s0.3-0.6,0.7-0.6c0.4,0,0.7,0.3,0.7,0.6S41.7,39.5,41.3,39.5z M41.3,38.6 c-0.1,0-0.3,0.1-0.3,0.2s0.1,0.2,0.3,0.2c0.1,0,0.3-0.1,0.3-0.2S41.4,38.6,41.3,38.6z" class="st7"/><path d="M37,40.8c-0.4,0-0.7-0.3-0.7-0.6s0.3-0.6,0.7-0.6c0.4,0,0.7,0.3,0.7,0.6S37.4,40.8,37,40.8z M37,40 c-0.1,0-0.3,0.1-0.3,0.2s0.1,0.2,0.3,0.2s0.3-0.1,0.3-0.2S37.1,40,37,40z" class="st7"/><path d="M41.4,42c-0.1,0-0.2,0-0.2-0.1c0-0.1-0.7-1.6-0.3-2.7c0-0.1,0.2-0.2,0.3-0.1c0.1,0,0.2,0.1,0.1,0.2 c-0.4,1,0.2,2.4,0.2,2.4C41.6,41.9,41.6,42,41.4,42C41.4,42,41.4,42,41.4,42z" class="st7"/><path d="M40,40.8c0,0-0.1,0-0.1,0c0,0-1-0.7-2.4-0.6c-0.1,0-0.2-0.1-0.2-0.2c0-0.1,0.1-0.2,0.2-0.2 c1.5-0.1,2.6,0.7,2.7,0.7c0.1,0.1,0.1,0.2,0,0.3C40.1,40.8,40,40.8,40,40.8z" class="st7"/></g></g></svg>